Patient4_TMGait_0pt4_02_left_12_GRF.mot
version=1
nRows=26
nColumns=19
inDegrees=no
endheader
time	F1x	F1y	F1z	M1x	M1y	M1z	F2x	F2y	F2z	M2x	M2y	M2z	EC1x	EC1y	EC1z	EC2x	EC2y	EC2z
16	-3.2697	-3.6798	-1.6087	0.79647	-0.06353	-5.5765	0.70118	763.5409	-80.1247	295.0516	90.549	848.8024	-0.0592	0.0182	-0.0073	-0.0462	0.0165	0.9585
16.0134	-2.0585	-1.9535	-1.0334	0.33402	-0.081024	-3.0216	-2.9113	746.0016	-76.174	288.3615	86.3064	826.1786	-0.0592	0.0182	-0.0073	-0.0462	0.0165	0.9585
16.0267	-1.0591	-0.41925	-0.54881	-0.082542	-0.085831	-0.78984	-5.4424	729.3006	-72.5221	281.8266	82.0552	804.2714	-0.0592	0.0182	-0.0073	-0.0462	0.0165	0.9585
16.0401	-0.32426	0.82645	-0.18275	-0.42353	-0.083893	0.9943	-6.7794	715.7034	-69.3856	276.341	78.0719	785.6703	-0.0592	0.0182	-0.0073	-0.0462	0.0165	0.9585
16.0534	0.16476	1.7624	0.069448	-0.68016	-0.08137	2.3037	-7.0721	707.0655	-66.8617	272.6798	74.5439	772.4253	-0.0592	0.0182	-0.0073	-0.0462	0.0165	0.9585
16.0668	0.43172	2.414	0.22252	-0.85605	-0.083451	3.185	-6.5791	704.5507	-64.9288	271.362	71.5419	765.7806	-0.0592	0.0182	-0.0073	-0.0462	0.0165	0.9585
16.0801	0.52522	2.8125	0.30179	-0.95687	-0.0978	3.6884	-5.5645	708.4252	-63.5514	272.5536	69.1044	765.9786	-0.0592	0.0182	-0.0073	-0.0462	0.0165	0.9585
16.0935	0.48563	2.9774	0.3312	-0.98629	-0.13049	3.8625	-4.2625	718.0787	-62.6486	276.0651	67.2001	772.3003	-0.0592	0.0182	-0.0073	-0.0462	0.0165	0.9585
16.1069	0.35078	2.9075	0.33855	-0.94109	-0.19112	3.7306	-2.8293	732.1591	-62.1483	281.3965	65.7702	783.2367	-0.0592	0.0182	-0.0073	-0.0462	0.0165	0.9585
16.1202	0.16085	2.5712	0.3426	-0.8101	-0.28054	3.2632	-1.3559	748.769	-61.9216	287.819	64.681	796.7241	-0.0592	0.0182	-0.0073	-0.0462	0.0165	0.9585
16.1336	-0.060124	1.9195	0.36671	-0.57568	-0.40967	2.4239	0.10735	765.6977	-61.828	294.4708	63.7732	810.4069	-0.0592	0.0182	-0.0073	-0.0462	0.0165	0.9585
16.1469	-0.27162	0.8871	0.41451	-0.21581	-0.56223	1.143	1.5763	780.6991	-61.719	300.4655	62.8621	821.9266	-0.0592	0.0182	-0.0073	-0.0462	0.0165	0.9585
16.1603	-0.44573	-0.56983	0.48658	0.28572	-0.72018	-0.62082	3.1191	791.7726	-61.4857	305.0034	61.796	829.2246	-0.0592	0.0182	-0.0073	-0.0462	0.0165	0.9585
16.1736	-0.54006	-2.4313	0.56273	0.92216	-0.84513	-2.846	4.832	797.4538	-61.0443	307.4933	60.4464	830.8257	-0.0592	0.0182	-0.0073	-0.0462	0.0165	0.9585
16.187	-0.48838	-4.5558	0.6239	1.6477	-0.89226	-5.3752	6.8324	797.0336	-60.3775	307.6369	58.7475	826.055	-0.0592	0.0182	-0.0073	-0.0462	0.0165	0.9585
16.2004	-0.19945	-6.6232	0.61533	2.3535	-0.77154	-7.8426	9.2443	790.6695	-59.519	305.4734	56.6826	815.1319	-0.0592	0.0182	-0.0073	-0.0462	0.0165	0.9585
16.2137	0.44998	-8.0686	0.48002	2.8421	-0.37393	-9.5873	12.1359	779.3544	-58.5471	301.3711	54.2998	799.1317	-0.0592	0.0182	-0.0073	-0.0462	0.0165	0.9585
16.2271	1.5891	-7.9857	0.12693	2.7971	0.45012	-9.5341	15.4939	764.7323	-57.559	295.9541	51.7053	779.7993	-0.0592	0.0182	-0.0073	-0.0462	0.0165	0.9585
16.2404	3.3476	-5.1096	-0.53192	1.778	1.8458	-6.1875	19.2364	748.739	-56.6581	289.9607	49.0428	759.1866	-0.0592	0.0182	-0.0073	-0.0462	0.0165	0.9585
16.2538	5.7948	2.2037	-1.5977	-0.78296	3.9451	2.399	23.1916	733.16	-55.9263	284.071	46.4644	739.2243	-0.0592	0.0182	-0.0073	-0.0462	0.0165	0.9585
16.2671	8.8769	15.8575	-3.1227	-5.5392	6.787	18.483	27.1172	719.2029	-55.4084	278.7367	44.1103	721.269	-0.0592	0.0182	-0.0073	-0.0462	0.0165	0.9585
16.2805	12.3342	37.7109	-5.0944	-13.1267	10.2645	44.2808	30.7145	707.188	-55.097	274.0572	42.0947	705.7972	-0.0592	0.0182	-0.0073	-0.0462	0.0165	0.9585
16.2939	15.5768	69.0779	-7.3706	-23.988	14.0045	81.3786	33.6503	696.3699	-54.9172	269.7194	40.4815	692.2103	-0.0592	0.0182	-0.0073	-0.0462	0.0165	0.9585
16.3072	17.578	109.908	-9.6161	-38.0922	17.25	129.7597	35.5958	685.04	-54.7175	265.0472	39.2589	678.9225	-0.0592	0.0182	-0.0073	-0.0462	0.0165	0.9585
16.3206	16.9291	157.8169	-11.2407	-54.5968	18.8207	186.6731	36.324	670.9816	-54.2903	259.1875	38.3201	663.7848	-0.0592	0.0182	-0.0073	-0.0462	0.0165	0.9585
16.3339	12.8577	207.7188	-11.4526	-71.7055	17.5122	246.1591	35.7914	652.2082	-53.4109	251.4011	37.4719	644.7837	-0.0592	0.0182	-0.0073	-0.0462	0.0165	0.9585
